<svg width="150" height="151" viewBox="0 0 150 151" fill="none" xmlns="http://www.w3.org/2000/svg">
<circle cx="75" cy="75.7541" r="74.5" stroke="#0066FF"/>
<path d="M65.25 69.254V68.754H64.75H56.2071L60.2286 64.7326L71.4086 53.5526L74.5 50.4611L77.5914 53.5526L88.7714 64.7326L92.7929 68.754H84.25H83.75V69.254V91.504H65.25V69.254ZM74.8536 56.2937L74.5 55.9402L74.1464 56.2937L66.4147 64.0255L65.5611 64.879H66.7682H69.125V87.129V87.629H69.625H79.375H79.875V87.129V64.879H82.2317H83.4389L82.5853 64.0255L74.8536 56.2937ZM65.8175 97.9465C66.1808 97.5832 66.6736 97.379 67.1875 97.379H81.8125C82.3264 97.379 82.8192 97.5832 83.1825 97.9465C83.5459 98.3099 83.75 98.8027 83.75 99.3165C83.75 99.8304 83.5459 100.323 83.1825 100.687C82.8192 101.05 82.3264 101.254 81.8125 101.254H67.1875C66.6736 101.254 66.1808 101.05 65.8175 100.687C65.4541 100.323 65.25 99.8304 65.25 99.3165C65.25 98.8027 65.4541 98.3099 65.8175 97.9465Z" fill="#0066FF" stroke="white"/>
</svg>
