<svg width="150" height="151" viewBox="0 0 150 151" fill="none" xmlns="http://www.w3.org/2000/svg">
<circle cx="75" cy="75.7541" r="74.5" fill="white" stroke="#0066FF"/>
<path d="M82.746 62.3835L82.746 62.3836L82.7571 62.3897C82.9626 62.5019 83.1432 62.6546 83.2882 62.8384C83.4331 63.0222 83.5393 63.2334 83.6005 63.4593C83.6616 63.6852 83.6765 63.9211 83.644 64.1528C83.6116 64.3846 83.5326 64.6074 83.4118 64.8079L83.4118 64.8078L83.4072 64.8157L70.3194 87.4602C70.3191 87.4609 70.3187 87.4615 70.3184 87.4621C70.1592 87.7312 69.9328 87.9545 69.6615 88.1102C69.3895 88.2663 69.0816 88.3491 68.768 88.3504L68.7583 88.3504L68.7487 88.3509C68.4481 88.3637 68.1505 88.2869 67.8938 88.1303L67.8871 88.1263L67.8804 88.1225C67.6768 88.0068 67.4982 87.852 67.3548 87.667C67.2114 87.482 67.1061 87.2705 67.045 87.0446C66.9838 86.8188 66.968 86.5831 66.9985 86.3511C67.029 86.1191 67.1051 85.8955 67.2226 85.693L67.223 85.6923L80.313 63.044L80.3147 63.0409C80.4304 62.8375 80.5853 62.659 80.7704 62.5156C80.9555 62.3723 81.1672 62.267 81.3932 62.2059C81.6193 62.1448 81.8552 62.129 82.0874 62.1595C82.3196 62.1899 82.5435 62.2661 82.746 62.3835ZM72.4504 69.4813L72.4497 69.5015L72.4505 69.5217C72.5344 71.4832 71.8366 73.3979 70.5101 74.846C69.1887 76.2886 67.3508 77.1508 65.3967 77.2455C63.4392 77.1507 61.5973 76.2894 60.27 74.8474C58.9376 73.3999 58.2318 71.4847 58.3064 69.5193L58.3071 69.5015L58.3065 69.4837C58.2412 67.5241 58.9511 65.6177 60.2825 64.1776C61.6088 62.7432 63.4453 61.8866 65.3967 61.7918C67.3446 61.8865 69.1771 62.744 70.4975 64.1791C71.823 65.6197 72.525 67.5256 72.4504 69.4813ZM65.3393 73.6618L65.3968 73.6684L65.4543 73.6618C66.4602 73.5452 67.3805 73.0395 68.018 72.2529C68.645 71.4792 68.9493 70.4943 68.8689 69.503C68.9603 68.508 68.6596 67.5158 68.0296 66.7384C67.3891 65.9481 66.4608 65.4445 65.4489 65.3383L65.3967 65.3328L65.3446 65.3383C64.331 65.4446 63.4002 65.946 62.7539 66.7337C62.1169 67.5102 61.807 68.5032 61.8884 69.503C61.8177 70.4989 62.1311 71.4848 62.7652 72.2577C63.4086 73.0418 64.3316 73.5453 65.3393 73.6618ZM78.2163 80.9925L78.2172 80.9723L78.2164 80.9521C78.1418 78.9964 78.8438 77.0905 80.1693 75.6498C81.4897 74.2148 83.3223 73.3573 85.2701 73.2625C87.2215 73.3574 89.058 74.214 90.3843 75.6484C91.7157 77.0885 92.4257 78.9949 92.3604 80.9544L92.3598 80.9723L92.3604 80.9901C92.435 82.9555 91.7292 84.8707 90.3968 86.3182C89.0695 87.7602 87.2277 88.6215 85.2701 88.7163C83.316 88.6216 81.4781 87.7594 80.1567 86.3168C78.8302 84.8687 78.1324 82.954 78.2163 80.9925ZM85.2125 85.1326L85.27 85.1392L85.3275 85.1326C86.3352 85.0161 87.2583 84.5126 87.9016 83.7285C88.5357 82.9556 88.8491 81.9697 88.7784 80.9737C88.8599 79.974 88.5499 78.9809 87.9129 78.2045C87.2666 77.4167 86.3358 76.9154 85.3223 76.809L85.2674 76.8033L85.2125 76.8096C84.2066 76.9262 83.2863 77.4319 82.6489 78.2185C82.0212 78.9929 81.717 79.9789 81.7982 80.9711C81.717 81.9633 82.0212 82.9493 82.6489 83.7237C83.2863 84.5103 84.2066 85.016 85.2125 85.1326Z" fill="#0066FF" stroke="#0066FF"/>
<path d="M75.3176 48.2679L75.3333 48.2684L75.3491 48.2679C82.7517 48.0349 89.9443 50.7477 95.3474 55.8105C100.746 60.8696 103.918 67.8619 104.166 75.254C103.918 82.6462 100.746 89.6385 95.3474 94.6975C89.9443 99.7604 82.7517 102.473 75.3491 102.24L75.3333 102.24L75.3176 102.24C67.915 102.473 60.7224 99.7604 55.3193 94.6975C49.9202 89.6385 46.7489 82.6462 46.5003 75.254C46.7489 67.8619 49.9202 60.8696 55.3193 55.8105C60.7224 50.7477 67.915 48.0349 75.3176 48.2679ZM50.0837 75.2336L50.0829 75.254L50.0837 75.2744C50.3468 81.7193 53.1529 87.7976 57.8881 92.1799C62.619 96.558 68.8906 98.8872 75.3333 98.6593C81.7761 98.8872 88.0477 96.558 92.7785 92.1799C97.5138 87.7976 100.32 81.7193 100.583 75.2744L100.584 75.254L100.583 75.2336C100.32 68.7888 97.5138 62.7104 92.7785 58.3282C88.0477 53.95 81.7761 51.6209 75.3333 51.8488C68.8906 51.6209 62.619 53.95 57.8881 58.3282C53.1529 62.7104 50.3468 68.7888 50.0837 75.2336Z" fill="#0066FF" stroke="#0066FF"/>
</svg>
