<svg width="150" height="151" viewBox="0 0 150 151" fill="none" xmlns="http://www.w3.org/2000/svg">
<circle cx="75" cy="75.7541" r="74.5" fill="white" stroke="#0066FF"/>
<path d="M48.2093 57.9633C49.944 56.2286 52.2967 55.254 54.75 55.254H95.25C96.4647 55.254 97.6676 55.4933 98.7898 55.9581C99.9121 56.423 100.932 57.1043 101.791 57.9633C102.65 58.8222 103.331 59.8419 103.796 60.9642C104.261 62.0865 104.5 63.2893 104.5 64.504V67.754H45.5V64.504C45.5 62.0508 46.4746 59.698 48.2093 57.9633ZM45.5 87.004V73.254H104.5V87.004C104.5 88.2188 104.261 89.4216 103.796 90.5438C103.331 91.6661 102.65 92.6858 101.791 93.5448C100.932 94.4037 99.9121 95.0851 98.7898 95.5499C97.6676 96.0148 96.4647 96.254 95.25 96.254H54.75C52.2967 96.254 49.944 95.2795 48.2093 93.5448C46.4746 91.8101 45.5 89.4573 45.5 87.004ZM93.75 82.754H86.25C85.5207 82.754 84.8212 83.0438 84.3055 83.5595C83.7897 84.0752 83.5 84.7747 83.5 85.504C83.5 86.2334 83.7897 86.9328 84.3055 87.4486C84.8212 87.9643 85.5207 88.254 86.25 88.254H93.75C94.4793 88.254 95.1788 87.9643 95.6945 87.4486C96.2103 86.9328 96.5 86.2334 96.5 85.504C96.5 84.7747 96.2103 84.0752 95.6945 83.5595C95.1788 83.0438 94.4793 82.754 93.75 82.754Z" fill="#0066FF" stroke="#0066FF"/>
</svg>
